# xmcd
#
# Track frame offsets: 
#        150
#        13155
#        24754
#        38749
#        50660
#        61793
#        74884
#        86209
#        97490
#        106769
#        114939
#        126772
#        138201
#        150929
#        161909
#        174887
#        186047
#        196808
#        205914
#        217784
#        229580
#        242515
#        254193
#        265719
#        275092
#        285494
#
# Disc length: 3952 seconds
#
# Revision: 0
# Processed by: cddbd v1.5.2PL0 Copyright (c) Steve Scherf et al.
# Submitted via: ExactAudioCopyFreeDBPlugin 1.0
#
DISCID=6e0f6e1a
DTITLE=Various Artist - Juicy Harmonica
DYEAR=1900
DGENRE=Blues
TTITLE0=Gray Stomp - John Brim and His Stompers
TTITLE1=Biscuit Baking Mama - Big Ed and His Combo
TTITLE2=Tough Times - John Brim and His Stompers
TTITLE3=Boogie Woogie Woogie Baby - Little Milton
TTITLE4=Boogie Beat - Levi Seabury and His Band
TTITLE5=Harmonica Train - Sonny 'hootin' Terry and His Night Owls
TTITLE6=Little Milton's Boogie - Little Milton
TTITLE7=Don't Do It Again - Leslie Louis
TTITLE8=My Little Baby - Little Shy Guy and The Hod Rods
TTITLE9=Goin' Back To Orleans - Jesse and Buzzy
TTITLE10=Working Man - Long Tall Lester and His Band
TTITLE11=All Because Of You - Long Tall Lester and His Band
TTITLE12=Well, You Know - Dusty Brown
TTITLE13=Messin' With The Kid  - Mo-Jo Buford
TTITLE14=Whole Lotta Woman - Mo-Jo Buford
TTITLE15=Get Up and Go - Al Smith
TTITLE16=You Better Believe It - Harmonica Slim
TTITLE17=Mary Helen - Harmonica Slim
TTITLE18=Somebody Voodooed The Hoodooman - Model 't' Slim
TTITLE19=You're Growing Old Baby - Model 't' Slim
TTITLE20=Take My Hand  - Model 't' Slim
TTITLE21=Spend My Money - Little Daddy Walton and Sons
TTITLE22=Highway Blues - Little Daddy Walton and Sons
TTITLE23=You'd Better Change - Joe Richards
TTITLE24=Jive Harp - Tim Whitsett and His Imperials
TTITLE25=Hello Mary Lee - Ken Cameron
EXTD=
EXTT0=
EXTT1=
EXTT2=
EXTT3=
EXTT4=
EXTT5=
EXTT6=
EXTT7=
EXTT8=
EXTT9=
EXTT10=
EXTT11=
EXTT12=
EXTT13=
EXTT14=
EXTT15=
EXTT16=
EXTT17=
EXTT18=
EXTT19=
EXTT20=
EXTT21=
EXTT22=
EXTT23=
EXTT24=
EXTT25=
PLAYORDER=
